<svg width="101" height="100" viewBox="0 0 101 100" fill="none" xmlns="http://www.w3.org/2000/svg">
<path d="M99.0521 50C99.0521 77.0615 77.1029 99 50.026 99C22.9492 99 1 77.0615 1 50C1 22.9385 22.9492 1 50.026 1C77.1029 1 99.0521 22.9385 99.0521 50Z" stroke="white" stroke-width="2"/>
<path d="M51.233 29.7825C50.8425 29.3919 50.2093 29.3919 49.8188 29.7825L43.4548 36.1464C43.0643 36.5369 43.0643 37.1701 43.4548 37.5606C43.8454 37.9512 44.4785 37.9512 44.869 37.5606L50.5259 31.9038L56.1828 37.5606C56.5733 37.9512 57.2064 37.9512 57.597 37.5606C57.9875 37.1701 57.9875 36.5369 57.597 36.1464L51.233 29.7825ZM51.5259 70.5104L51.5259 30.4896H49.5259L49.5259 70.5104H51.5259Z" fill="white"/>
</svg>
