<svg width="333" height="90" viewBox="0 0 400 141" fill="none" xmlns="http://www.w3.org/2000/svg">
<rect x="0.5" y="0.5" width="382" height="127" stroke="white"/>
<path d="M80.073 67.444C80.8183 67.6447 81.621 67.8167 82.481 67.96C83.341 68.0747 84.287 68.132 85.319 68.132C87.0677 68.132 88.6157 67.8883 89.963 67.401C91.3103 66.9137 92.4283 66.2543 93.317 65.423C94.2343 64.563 94.9223 63.5883 95.381 62.499C95.8397 61.381 96.069 60.1913 96.069 58.93C96.069 57.726 95.8683 56.5793 95.467 55.49C95.0657 54.372 94.4493 53.4117 93.618 52.609C92.8153 51.7777 91.7977 51.1183 90.565 50.631C89.3323 50.1437 87.8847 49.9 86.222 49.9H76.16V80H80.073V67.444ZM80.073 51.792H84.588C85.792 51.792 86.8527 52.007 87.77 52.437C88.6873 52.867 89.447 53.4403 90.049 54.157C90.651 54.845 91.0953 55.6333 91.382 56.522C91.6973 57.382 91.855 58.242 91.855 59.102C91.855 59.9333 91.7117 60.779 91.425 61.639C91.167 62.4703 90.737 63.23 90.135 63.918C89.533 64.606 88.7733 65.165 87.856 65.595C86.9387 66.025 85.835 66.24 84.545 66.24C83.6563 66.24 82.8393 66.2113 82.094 66.154C81.3487 66.068 80.675 65.9103 80.073 65.681V51.792ZM114.571 58.5V80H118.226V67.014C118.226 65.8387 118.355 64.8497 118.613 64.047C118.9 63.2157 119.258 62.542 119.688 62.026C120.118 61.51 120.591 61.1373 121.107 60.908C121.623 60.6787 122.125 60.564 122.612 60.564C123.271 60.564 123.873 60.779 124.418 61.209C124.991 61.639 125.407 62.0403 125.665 62.413L127.127 59.747C126.869 59.403 126.554 59.1163 126.181 58.887C125.837 58.6577 125.479 58.4857 125.106 58.371C124.762 58.2277 124.432 58.1417 124.117 58.113C123.83 58.0557 123.615 58.027 123.472 58.027C122.268 58.027 121.265 58.3567 120.462 59.016C119.659 59.6753 119 60.65 118.484 61.94H118.226V58.5H114.571ZM165.734 69.293C165.734 70.7837 165.476 72.217 164.96 73.593C164.444 74.9403 163.699 76.13 162.724 77.162C161.778 78.194 160.617 79.011 159.241 79.613C157.894 80.215 156.374 80.516 154.683 80.516C152.963 80.516 151.401 80.215 149.996 79.613C148.62 78.9823 147.445 78.151 146.47 77.119C145.524 76.087 144.779 74.8973 144.234 73.55C143.718 72.174 143.46 70.755 143.46 69.293C143.46 67.8023 143.718 66.3833 144.234 65.036C144.779 63.66 145.524 62.456 146.47 61.424C147.445 60.392 148.62 59.575 149.996 58.973C151.401 58.3423 152.963 58.027 154.683 58.027C156.374 58.027 157.894 58.3423 159.241 58.973C160.617 59.575 161.778 60.392 162.724 61.424C163.699 62.456 164.444 63.66 164.96 65.036C165.476 66.3833 165.734 67.8023 165.734 69.293ZM161.649 69.293C161.649 67.2863 161.434 65.6667 161.004 64.434C160.574 63.1727 160.015 62.198 159.327 61.51C158.639 60.822 157.879 60.3633 157.048 60.134C156.217 59.876 155.414 59.747 154.64 59.747C153.866 59.747 153.063 59.876 152.232 60.134C151.401 60.3633 150.627 60.822 149.91 61.51C149.222 62.198 148.649 63.1727 148.19 64.434C147.76 65.6667 147.545 67.2863 147.545 69.293C147.545 71.271 147.76 72.8907 148.19 74.152C148.649 75.3847 149.222 76.345 149.91 77.033C150.627 77.721 151.401 78.194 152.232 78.452C153.063 78.6813 153.866 78.796 154.64 78.796C155.414 78.796 156.217 78.6813 157.048 78.452C157.879 78.194 158.639 77.721 159.327 77.033C160.015 76.345 160.574 75.3847 161.004 74.152C161.434 72.8907 161.649 71.271 161.649 69.293ZM212.138 74.453C209.214 77.205 205.745 78.581 201.732 78.581C199.496 78.581 197.518 78.194 195.798 77.42C194.078 76.646 192.645 75.614 191.498 74.324C190.351 73.034 189.477 71.5433 188.875 69.852C188.302 68.1607 188.015 66.3977 188.015 64.563C188.015 62.6137 188.316 60.8363 188.918 59.231C189.549 57.597 190.423 56.1923 191.541 55.017C192.659 53.8417 193.978 52.9243 195.497 52.265C197.045 51.6057 198.722 51.276 200.528 51.276C201.761 51.276 202.879 51.4193 203.882 51.706C204.914 51.9927 205.817 52.3653 206.591 52.824C207.394 53.2827 208.039 53.813 208.526 54.415C209.042 54.9883 209.4 55.576 209.601 56.178H212.783C212.353 55.2033 211.794 54.3003 211.106 53.469C210.447 52.6377 209.615 51.921 208.612 51.319C207.609 50.717 206.433 50.244 205.086 49.9C203.739 49.556 202.205 49.384 200.485 49.384C197.991 49.384 195.712 49.7423 193.648 50.459C191.613 51.1757 189.864 52.2077 188.402 53.555C186.94 54.8737 185.808 56.479 185.005 58.371C184.202 60.2343 183.801 62.327 183.801 64.649C183.801 66.6557 184.116 68.6193 184.747 70.54C185.406 72.432 186.41 74.1233 187.757 75.614C189.104 77.076 190.824 78.2657 192.917 79.183C195.01 80.0717 197.504 80.516 200.399 80.516C202.234 80.516 203.868 80.344 205.301 80C206.763 79.656 208.024 79.2403 209.085 78.753C210.174 78.237 211.077 77.6923 211.794 77.119C212.511 76.5457 213.055 76.044 213.428 75.614L212.138 74.453ZM235.994 49.9H232.339V80H235.994V49.9ZM276.593 70.196V69.293C276.593 67.3723 276.32 65.7097 275.776 64.305C275.231 62.9003 274.486 61.7393 273.54 60.822C272.622 59.9047 271.547 59.2167 270.315 58.758C269.082 58.2993 267.778 58.07 266.402 58.07C264.94 58.07 263.592 58.328 262.36 58.844C261.127 59.3313 260.052 60.0623 259.135 61.037C258.217 61.983 257.501 63.144 256.985 64.52C256.469 65.8673 256.211 67.401 256.211 69.121C256.211 70.5543 256.426 71.959 256.856 73.335C257.314 74.6823 257.988 75.9007 258.877 76.99C259.794 78.0507 260.941 78.9107 262.317 79.57C263.721 80.2007 265.37 80.516 267.262 80.516C269.096 80.516 270.788 80.2007 272.336 79.57C273.884 78.9107 275.231 77.979 276.378 76.775L275.002 75.399C274.4 75.915 273.826 76.388 273.282 76.818C272.766 77.248 272.235 77.6063 271.691 77.893C271.146 78.1797 270.573 78.409 269.971 78.581C269.397 78.7243 268.752 78.796 268.036 78.796C267.233 78.796 266.373 78.6813 265.456 78.452C264.567 78.194 263.736 77.7497 262.962 77.119C262.188 76.4883 261.543 75.614 261.027 74.496C260.511 73.378 260.253 71.9447 260.253 70.196H276.593ZM260.253 68.476C260.253 67.3293 260.367 66.2257 260.597 65.165C260.855 64.0757 261.227 63.1153 261.715 62.284C262.231 61.4527 262.876 60.7933 263.65 60.306C264.424 59.79 265.341 59.532 266.402 59.532C268.437 59.532 270.014 60.3347 271.132 61.94C272.278 63.5167 272.852 65.6953 272.852 68.476H260.253ZM303.864 58.027C305.957 58.027 307.576 58.328 308.723 58.93C309.87 59.5033 310.701 60.263 311.217 61.209C311.762 62.155 312.077 63.2443 312.163 64.477C312.249 65.7097 312.292 66.971 312.292 68.261V80H308.809V77.893C307.978 78.6957 306.917 79.3407 305.627 79.828C304.337 80.2867 303.047 80.516 301.757 80.516C300.524 80.516 299.435 80.301 298.489 79.871C297.543 79.441 296.755 78.882 296.124 78.194C295.493 77.506 295.02 76.732 294.705 75.872C294.39 75.012 294.232 74.1377 294.232 73.249C294.232 72.3317 294.404 71.4143 294.748 70.497C295.092 69.5797 295.608 68.7627 296.296 68.046C296.984 67.3007 297.83 66.6987 298.833 66.24C299.836 65.7813 300.983 65.552 302.273 65.552C303.563 65.552 304.781 65.81 305.928 66.326C307.103 66.8133 308.064 67.5157 308.809 68.433V66.584C308.809 64.2333 308.451 62.4847 307.734 61.338C307.046 60.1913 305.77 59.618 303.907 59.618C303.104 59.618 302.402 59.7183 301.8 59.919C301.198 60.1197 300.653 60.4063 300.166 60.779C299.707 61.123 299.277 61.5673 298.876 62.112C298.475 62.628 298.073 63.2157 297.672 63.875L295.436 61.639C295.837 61.209 296.253 60.779 296.683 60.349C297.142 59.919 297.686 59.532 298.317 59.188C298.976 58.844 299.75 58.5717 300.639 58.371C301.528 58.1417 302.603 58.027 303.864 58.027ZM308.809 71.486C308.666 71.142 308.451 70.7407 308.164 70.282C307.906 69.8233 307.562 69.379 307.132 68.949C306.702 68.519 306.186 68.1607 305.584 67.874C304.982 67.5587 304.265 67.401 303.434 67.401C302.603 67.401 301.843 67.573 301.155 67.917C300.467 68.2323 299.879 68.6623 299.392 69.207C298.933 69.723 298.575 70.3393 298.317 71.056C298.059 71.7727 297.93 72.518 297.93 73.292C297.93 74.2093 298.088 75.012 298.403 75.7C298.747 76.3593 299.177 76.9327 299.693 77.42C300.209 77.8787 300.782 78.2227 301.413 78.452C302.044 78.6813 302.646 78.796 303.219 78.796C303.764 78.796 304.308 78.6957 304.853 78.495C305.426 78.2943 305.957 78.022 306.444 77.678C306.96 77.3053 307.419 76.8753 307.82 76.388C308.221 75.9007 308.551 75.3703 308.809 74.797V71.486ZM350.908 80V66.068C350.908 65.552 350.865 64.8497 350.779 63.961C350.693 63.0437 350.406 62.155 349.919 61.295C349.46 60.4063 348.715 59.6467 347.683 59.016C346.651 58.3567 345.189 58.027 343.297 58.027C342.466 57.9983 341.534 58.1703 340.502 58.543C339.47 58.887 338.452 59.5607 337.449 60.564L336.761 61.252H336.589V58.5H332.934V80H336.589V66.713C336.589 65.595 336.747 64.6347 337.062 63.832C337.377 63.0293 337.807 62.3557 338.352 61.811C338.897 61.2663 339.513 60.865 340.201 60.607C340.918 60.349 341.649 60.22 342.394 60.22C343.598 60.22 344.53 60.4637 345.189 60.951C345.848 61.4097 346.321 61.9543 346.608 62.585C346.923 63.2157 347.11 63.8463 347.167 64.477C347.224 65.1077 347.253 65.5663 347.253 65.853V80H350.908Z" fill="white"/>
<rect x="17.5" y="13.5" width="382" height="127" stroke="white"/>
</svg>
