<svg width="421" height="141" viewBox="0 0 421 141" fill="none" xmlns="http://www.w3.org/2000/svg">
<rect x="0.5" y="0.5" width="382" height="127" stroke="white"/>
<path d="M79.6038 66.444C80.3492 66.6447 81.1518 66.8167 82.0118 66.96C82.8718 67.0747 83.8178 67.132 84.8498 67.132C86.5985 67.132 88.1465 66.8883 89.4938 66.401C90.8412 65.9137 91.9592 65.2543 92.8478 64.423C93.7652 63.563 94.4532 62.5883 94.9118 61.499C95.3705 60.381 95.5998 59.1913 95.5998 57.93C95.5998 56.726 95.3992 55.5793 94.9978 54.49C94.5965 53.372 93.9802 52.4117 93.1488 51.609C92.3462 50.7777 91.3285 50.1183 90.0958 49.631C88.8632 49.1437 87.4155 48.9 85.7528 48.9H75.6908V79H79.6038V66.444ZM79.6038 50.792H84.1188C85.3228 50.792 86.3835 51.007 87.3008 51.437C88.2182 51.867 88.9778 52.4403 89.5798 53.157C90.1818 53.845 90.6262 54.6333 90.9128 55.522C91.2282 56.382 91.3858 57.242 91.3858 58.102C91.3858 58.9333 91.2425 59.779 90.9558 60.639C90.6978 61.4703 90.2678 62.23 89.6658 62.918C89.0638 63.606 88.3042 64.165 87.3868 64.595C86.4695 65.025 85.3658 65.24 84.0758 65.24C83.1872 65.24 82.3702 65.2113 81.6248 65.154C80.8795 65.068 80.2058 64.9103 79.6038 64.681V50.792ZM113.672 57.5V79H117.327V66.014C117.327 64.8387 117.456 63.8497 117.714 63.047C118.001 62.2157 118.359 61.542 118.789 61.026C119.219 60.51 119.692 60.1373 120.208 59.908C120.724 59.6787 121.226 59.564 121.713 59.564C122.372 59.564 122.974 59.779 123.519 60.209C124.092 60.639 124.508 61.0403 124.766 61.413L126.228 58.747C125.97 58.403 125.655 58.1163 125.282 57.887C124.938 57.6577 124.58 57.4857 124.207 57.371C123.863 57.2277 123.533 57.1417 123.218 57.113C122.931 57.0557 122.716 57.027 122.573 57.027C121.369 57.027 120.366 57.3567 119.563 58.016C118.76 58.6753 118.101 59.65 117.585 60.94H117.327V57.5H113.672ZM164.405 68.293C164.405 69.7837 164.147 71.217 163.631 72.593C163.115 73.9403 162.37 75.13 161.395 76.162C160.449 77.194 159.288 78.011 157.912 78.613C156.565 79.215 155.045 79.516 153.354 79.516C151.634 79.516 150.072 79.215 148.667 78.613C147.291 77.9823 146.116 77.151 145.141 76.119C144.195 75.087 143.45 73.8973 142.905 72.55C142.389 71.174 142.131 69.755 142.131 68.293C142.131 66.8023 142.389 65.3833 142.905 64.036C143.45 62.66 144.195 61.456 145.141 60.424C146.116 59.392 147.291 58.575 148.667 57.973C150.072 57.3423 151.634 57.027 153.354 57.027C155.045 57.027 156.565 57.3423 157.912 57.973C159.288 58.575 160.449 59.392 161.395 60.424C162.37 61.456 163.115 62.66 163.631 64.036C164.147 65.3833 164.405 66.8023 164.405 68.293ZM160.32 68.293C160.32 66.2863 160.105 64.6667 159.675 63.434C159.245 62.1727 158.686 61.198 157.998 60.51C157.31 59.822 156.55 59.3633 155.719 59.134C154.888 58.876 154.085 58.747 153.311 58.747C152.537 58.747 151.734 58.876 150.903 59.134C150.072 59.3633 149.298 59.822 148.581 60.51C147.893 61.198 147.32 62.1727 146.861 63.434C146.431 64.6667 146.216 66.2863 146.216 68.293C146.216 70.271 146.431 71.8907 146.861 73.152C147.32 74.3847 147.893 75.345 148.581 76.033C149.298 76.721 150.072 77.194 150.903 77.452C151.734 77.6813 152.537 77.796 153.311 77.796C154.085 77.796 154.888 77.6813 155.719 77.452C156.55 77.194 157.31 76.721 157.998 76.033C158.686 75.345 159.245 74.3847 159.675 73.152C160.105 71.8907 160.32 70.271 160.32 68.293ZM210.379 73.453C207.455 76.205 203.986 77.581 199.973 77.581C197.737 77.581 195.759 77.194 194.039 76.42C192.319 75.646 190.886 74.614 189.739 73.324C188.592 72.034 187.718 70.5433 187.116 68.852C186.543 67.1607 186.256 65.3977 186.256 63.563C186.256 61.6137 186.557 59.8363 187.159 58.231C187.79 56.597 188.664 55.1923 189.782 54.017C190.9 52.8417 192.219 51.9243 193.738 51.265C195.286 50.6057 196.963 50.276 198.769 50.276C200.002 50.276 201.12 50.4193 202.123 50.706C203.155 50.9927 204.058 51.3653 204.832 51.824C205.635 52.2827 206.28 52.813 206.767 53.415C207.283 53.9883 207.641 54.576 207.842 55.178H211.024C210.594 54.2033 210.035 53.3003 209.347 52.469C208.688 51.6377 207.856 50.921 206.853 50.319C205.85 49.717 204.674 49.244 203.327 48.9C201.98 48.556 200.446 48.384 198.726 48.384C196.232 48.384 193.953 48.7423 191.889 49.459C189.854 50.1757 188.105 51.2077 186.643 52.555C185.181 53.8737 184.049 55.479 183.246 57.371C182.443 59.2343 182.042 61.327 182.042 63.649C182.042 65.6557 182.357 67.6193 182.988 69.54C183.647 71.432 184.651 73.1233 185.998 74.614C187.345 76.076 189.065 77.2657 191.158 78.183C193.251 79.0717 195.745 79.516 198.64 79.516C200.475 79.516 202.109 79.344 203.542 79C205.004 78.656 206.265 78.2403 207.326 77.753C208.415 77.237 209.318 76.6923 210.035 76.119C210.752 75.5457 211.296 75.044 211.669 74.614L210.379 73.453ZM233.805 48.9H230.15V79H233.805V48.9ZM273.974 69.196V68.293C273.974 66.3723 273.701 64.7097 273.157 63.305C272.612 61.9003 271.867 60.7393 270.921 59.822C270.003 58.9047 268.928 58.2167 267.696 57.758C266.463 57.2993 265.159 57.07 263.783 57.07C262.321 57.07 260.973 57.328 259.741 57.844C258.508 58.3313 257.433 59.0623 256.516 60.037C255.598 60.983 254.882 62.144 254.366 63.52C253.85 64.8673 253.592 66.401 253.592 68.121C253.592 69.5543 253.807 70.959 254.237 72.335C254.695 73.6823 255.369 74.9007 256.258 75.99C257.175 77.0507 258.322 77.9107 259.698 78.57C261.102 79.2007 262.751 79.516 264.643 79.516C266.477 79.516 268.169 79.2007 269.717 78.57C271.265 77.9107 272.612 76.979 273.759 75.775L272.383 74.399C271.781 74.915 271.207 75.388 270.663 75.818C270.147 76.248 269.616 76.6063 269.072 76.893C268.527 77.1797 267.954 77.409 267.352 77.581C266.778 77.7243 266.133 77.796 265.417 77.796C264.614 77.796 263.754 77.6813 262.837 77.452C261.948 77.194 261.117 76.7497 260.343 76.119C259.569 75.4883 258.924 74.614 258.408 73.496C257.892 72.378 257.634 70.9447 257.634 69.196H273.974ZM257.634 67.476C257.634 66.3293 257.748 65.2257 257.978 64.165C258.236 63.0757 258.608 62.1153 259.096 61.284C259.612 60.4527 260.257 59.7933 261.031 59.306C261.805 58.79 262.722 58.532 263.783 58.532C265.818 58.532 267.395 59.3347 268.513 60.94C269.659 62.5167 270.233 64.6953 270.233 67.476H257.634ZM300.815 57.027C302.908 57.027 304.527 57.328 305.674 57.93C306.821 58.5033 307.652 59.263 308.168 60.209C308.713 61.155 309.028 62.2443 309.114 63.477C309.2 64.7097 309.243 65.971 309.243 67.261V79H305.76V76.893C304.929 77.6957 303.868 78.3407 302.578 78.828C301.288 79.2867 299.998 79.516 298.708 79.516C297.475 79.516 296.386 79.301 295.44 78.871C294.494 78.441 293.706 77.882 293.075 77.194C292.444 76.506 291.971 75.732 291.656 74.872C291.341 74.012 291.183 73.1377 291.183 72.249C291.183 71.3317 291.355 70.4143 291.699 69.497C292.043 68.5797 292.559 67.7627 293.247 67.046C293.935 66.3007 294.781 65.6987 295.784 65.24C296.787 64.7813 297.934 64.552 299.224 64.552C300.514 64.552 301.732 64.81 302.879 65.326C304.054 65.8133 305.015 66.5157 305.76 67.433V65.584C305.76 63.2333 305.402 61.4847 304.685 60.338C303.997 59.1913 302.721 58.618 300.858 58.618C300.055 58.618 299.353 58.7183 298.751 58.919C298.149 59.1197 297.604 59.4063 297.117 59.779C296.658 60.123 296.228 60.5673 295.827 61.112C295.426 61.628 295.024 62.2157 294.623 62.875L292.387 60.639C292.788 60.209 293.204 59.779 293.634 59.349C294.093 58.919 294.637 58.532 295.268 58.188C295.927 57.844 296.701 57.5717 297.59 57.371C298.479 57.1417 299.554 57.027 300.815 57.027ZM305.76 70.486C305.617 70.142 305.402 69.7407 305.115 69.282C304.857 68.8233 304.513 68.379 304.083 67.949C303.653 67.519 303.137 67.1607 302.535 66.874C301.933 66.5587 301.216 66.401 300.385 66.401C299.554 66.401 298.794 66.573 298.106 66.917C297.418 67.2323 296.83 67.6623 296.343 68.207C295.884 68.723 295.526 69.3393 295.268 70.056C295.01 70.7727 294.881 71.518 294.881 72.292C294.881 73.2093 295.039 74.012 295.354 74.7C295.698 75.3593 296.128 75.9327 296.644 76.42C297.16 76.8787 297.733 77.2227 298.364 77.452C298.995 77.6813 299.597 77.796 300.17 77.796C300.715 77.796 301.259 77.6957 301.804 77.495C302.377 77.2943 302.908 77.022 303.395 76.678C303.911 76.3053 304.37 75.8753 304.771 75.388C305.172 74.9007 305.502 74.3703 305.76 73.797V70.486ZM347.429 79V65.068C347.429 64.552 347.386 63.8497 347.3 62.961C347.214 62.0437 346.927 61.155 346.44 60.295C345.981 59.4063 345.236 58.6467 344.204 58.016C343.172 57.3567 341.71 57.027 339.818 57.027C338.986 56.9983 338.055 57.1703 337.023 57.543C335.991 57.887 334.973 58.5607 333.97 59.564L333.282 60.252H333.11V57.5H329.455V79H333.11V65.713C333.11 64.595 333.267 63.6347 333.583 62.832C333.898 62.0293 334.328 61.3557 334.873 60.811C335.417 60.2663 336.034 59.865 336.722 59.607C337.438 59.349 338.169 59.22 338.915 59.22C340.119 59.22 341.05 59.4637 341.71 59.951C342.369 60.4097 342.842 60.9543 343.129 61.585C343.444 62.2157 343.63 62.8463 343.688 63.477C343.745 64.1077 343.774 64.5663 343.774 64.853V79H347.429Z" fill="white"/>
<rect x="38.5" y="13.5" width="382" height="127" stroke="white"/>
</svg>
